<svg xmlns="http://www.w3.org/2000/svg" width="1400" height="760" viewBox="0 0 1400 760">
  <defs>
    <linearGradient id="bg" x1="0" y1="0" x2="1" y2="1"><stop stop-color="#070b18"/><stop offset="1" stop-color="#111b35"/></linearGradient>
    <linearGradient id="accent" x1="0" y1="0" x2="1" y2="0"><stop stop-color="#5b8cff"/><stop offset="1" stop-color="#62e3c5"/></linearGradient>
    <filter id="shadow"><feDropShadow dx="0" dy="8" stdDeviation="12" flood-opacity=".35"/></filter>
    <marker id="arrow" markerWidth="10" markerHeight="10" refX="9" refY="3" orient="auto"><path d="M0,0 L0,6 L9,3 z" fill="#7ba4ff"/></marker>
  </defs>
  <rect width="1400" height="760" rx="28" fill="url(#bg)"/>
  <text x="70" y="72" fill="white" font-family="Arial" font-size="34" font-weight="700">ReportAgent · Persistent Multimodal Memory Architecture</text>
  <text x="70" y="106" fill="#91a1bf" font-family="Arial" font-size="18">Qwen Cloud Global AI Hackathon · Track 1 MemoryAgent</text>
  <g font-family="Arial" filter="url(#shadow)">
    <rect x="70" y="190" width="260" height="350" rx="20" fill="#101a31" stroke="#2c416d" stroke-width="2"/>
    <text x="105" y="235" fill="#62e3c5" font-size="22" font-weight="700">User Workspace</text>
    <text x="105" y="282" fill="white" font-size="17">Screenshots + notes</text><text x="105" y="320" fill="white" font-size="17">Period + tags</text>
    <text x="105" y="358" fill="white" font-size="17">Memory preferences</text><text x="105" y="396" fill="white" font-size="17">History + semantic chat</text>
    <text x="105" y="434" fill="white" font-size="17">Edit / PDF / Markdown</text><text x="105" y="472" fill="white" font-size="17">Qwen TTS playback</text>

    <rect x="440" y="150" width="390" height="450" rx="20" fill="#111d38" stroke="#4467ad" stroke-width="2"/>
    <text x="478" y="198" fill="#7ba4ff" font-size="22" font-weight="700">ReportAgent Orchestrator</text>
    <rect x="480" y="230" width="310" height="64" rx="12" fill="#1a294d"/><text x="510" y="270" fill="white" font-size="17">1 · Multimodal extraction</text>
    <rect x="480" y="315" width="310" height="64" rx="12" fill="#1a294d"/><text x="510" y="355" fill="white" font-size="17">2 · Retrieve limited context</text>
    <rect x="480" y="400" width="310" height="64" rx="12" fill="#1a294d"/><text x="510" y="440" fill="white" font-size="17">3 · Generate + compare trends</text>
    <rect x="480" y="485" width="310" height="64" rx="12" fill="#1a294d"/><text x="510" y="525" fill="white" font-size="17">4 · Learn + persist experience</text>

    <rect x="940" y="150" width="390" height="210" rx="20" fill="#112237" stroke="#2b8c81" stroke-width="2"/>
    <text x="980" y="198" fill="#62e3c5" font-size="22" font-weight="700">Qwen Cloud · Alibaba Cloud</text>
    <text x="980" y="244" fill="white" font-size="17">Qwen3.7-Plus · text + vision</text>
    <text x="980" y="282" fill="white" font-size="17">text-embedding-v3 · retrieval</text>
    <text x="980" y="320" fill="white" font-size="17">qwen3-tts-flash · speech</text>

    <rect x="940" y="410" width="390" height="190" rx="20" fill="#221a39" stroke="#8f65ca" stroke-width="2"/>
    <text x="980" y="458" fill="#cf9cff" font-size="22" font-weight="700">Persistent Memory Store</text>
    <text x="980" y="504" fill="white" font-size="17">Embeddings + report history</text>
    <text x="980" y="540" fill="white" font-size="17">Style, tone, focus preferences</text>
    <text x="980" y="576" fill="white" font-size="17">Recency decay + bounded retention</text>
  </g>
  <g stroke="#7ba4ff" stroke-width="4" fill="none" marker-end="url(#arrow)"><path d="M330 365 H430"/><path d="M830 270 H930"/><path d="M930 505 H840"/></g>
  <text x="70" y="690" fill="#91a1bf" font-family="Arial" font-size="17">Automatic memory loop: observe → retrieve → reason → report → embed → remember → selectively forget</text>
  <rect x="70" y="714" width="1260" height="4" rx="2" fill="url(#accent)"/>
</svg>
